<?xml version="1.0" encoding="UTF-8" standalone="no"?>
<!DOCTYPE svg PUBLIC "-//W3C//DTD SVG 1.1//EN"
 "http://www.w3.org/Graphics/SVG/1.1/DTD/svg11.dtd">
<!-- Generated by graphviz version 5.0.0 (20220707.1540)
 -->
<!-- Title: dependencies Pages: 1 -->
<svg width="895pt" height="247pt"
 viewBox="0.00 0.00 895.00 246.80" xmlns="http://www.w3.org/2000/svg" xmlns:xlink="http://www.w3.org/1999/xlink">
<g id="graph0" class="graph" transform="scale(1 1) rotate(0) translate(4 242.8)">
<title>dependencies</title>
<polygon fill="white" stroke="transparent" points="-4,4 -4,-242.8 891,-242.8 891,4 -4,4"/>
<text text-anchor="middle" x="443.5" y="-8.2" font-family="sans-serif" font-size="14.00">dependencies</text>
<g id="clust1" class="cluster">
<title>cluster_AppModule</title>
<polygon fill="none" stroke="black" stroke-dasharray="1,5" points="8,-32.8 8,-230.8 879,-230.8 879,-32.8 8,-32.8"/>
</g>
<g id="clust8" class="cluster">
<title>cluster_AppModule_imports</title>
<polygon fill="none" stroke="black" points="727,-40.8 727,-92.8 871,-92.8 871,-40.8 727,-40.8"/>
</g>
<g id="clust2" class="cluster">
<title>cluster_AppModule_declarations</title>
<polygon fill="none" stroke="black" points="16,-40.8 16,-92.8 719,-92.8 719,-40.8 16,-40.8"/>
</g>
<g id="clust10" class="cluster">
<title>cluster_AppModule_bootstrap</title>
<polygon fill="none" stroke="black" points="397,-170.8 397,-222.8 521,-222.8 521,-170.8 397,-170.8"/>
</g>
<!-- AppComponent -->
<g id="node1" class="node">
<title>AppComponent</title>
<polygon fill="#ffffb3" stroke="black" points="710.94,-84.8 605.06,-84.8 605.06,-48.8 710.94,-48.8 710.94,-84.8"/>
<text text-anchor="middle" x="658" y="-62.6" font-family="Times,serif" font-size="14.00">AppComponent</text>
</g>
<!-- AppModule -->
<g id="node6" class="node">
<title>AppModule</title>
<polygon fill="#8dd3c7" stroke="black" points="500.66,-149.8 497.66,-153.8 476.66,-153.8 473.66,-149.8 417.34,-149.8 417.34,-113.8 500.66,-113.8 500.66,-149.8"/>
<text text-anchor="middle" x="459" y="-127.6" font-family="Times,serif" font-size="14.00">AppModule</text>
</g>
<!-- AppComponent&#45;&gt;AppModule -->
<g id="edge1" class="edge">
<title>AppComponent&#45;&gt;AppModule</title>
<path fill="none" stroke="black" d="M658,-84.82C658,-102.17 658,-125.8 658,-125.8 658,-125.8 510.72,-125.8 510.72,-125.8"/>
<polygon fill="black" stroke="black" points="510.72,-122.3 500.72,-125.8 510.72,-129.3 510.72,-122.3"/>
</g>
<!-- FooterComponent -->
<g id="node2" class="node">
<title>FooterComponent</title>
<polygon fill="#ffffb3" stroke="black" points="586.88,-84.8 469.12,-84.8 469.12,-48.8 586.88,-48.8 586.88,-84.8"/>
<text text-anchor="middle" x="528" y="-62.6" font-family="Times,serif" font-size="14.00">FooterComponent</text>
</g>
<!-- FooterComponent&#45;&gt;AppModule -->
<g id="edge2" class="edge">
<title>FooterComponent&#45;&gt;AppModule</title>
<path fill="none" stroke="black" d="M484.94,-84.91C484.94,-84.91 484.94,-103.79 484.94,-103.79"/>
<polygon fill="black" stroke="black" points="481.44,-103.79 484.94,-113.79 488.44,-103.79 481.44,-103.79"/>
</g>
<!-- HeaderComponent -->
<g id="node3" class="node">
<title>HeaderComponent</title>
<polygon fill="#ffffb3" stroke="black" points="450.75,-84.8 329.25,-84.8 329.25,-48.8 450.75,-48.8 450.75,-84.8"/>
<text text-anchor="middle" x="390" y="-62.6" font-family="Times,serif" font-size="14.00">HeaderComponent</text>
</g>
<!-- HeaderComponent&#45;&gt;AppModule -->
<g id="edge3" class="edge">
<title>HeaderComponent&#45;&gt;AppModule</title>
<path fill="none" stroke="black" d="M434.02,-84.91C434.02,-84.91 434.02,-103.79 434.02,-103.79"/>
<polygon fill="black" stroke="black" points="430.52,-103.79 434.02,-113.79 437.52,-103.79 430.52,-103.79"/>
</g>
<!-- InfoUserComponent -->
<g id="node4" class="node">
<title>InfoUserComponent</title>
<polygon fill="#ffffb3" stroke="black" points="311.59,-84.8 180.41,-84.8 180.41,-48.8 311.59,-48.8 311.59,-84.8"/>
<text text-anchor="middle" x="246" y="-62.6" font-family="Times,serif" font-size="14.00">InfoUserComponent</text>
</g>
<!-- InfoUserComponent&#45;&gt;AppModule -->
<g id="edge4" class="edge">
<title>InfoUserComponent&#45;&gt;AppModule</title>
<path fill="none" stroke="black" d="M246,-84.82C246,-102.17 246,-125.8 246,-125.8 246,-125.8 407.17,-125.8 407.17,-125.8"/>
<polygon fill="black" stroke="black" points="407.17,-129.3 417.17,-125.8 407.17,-122.3 407.17,-129.3"/>
</g>
<!-- UserFormComponent -->
<g id="node5" class="node">
<title>UserFormComponent</title>
<polygon fill="#ffffb3" stroke="black" points="162.1,-84.8 23.9,-84.8 23.9,-48.8 162.1,-48.8 162.1,-84.8"/>
<text text-anchor="middle" x="93" y="-62.6" font-family="Times,serif" font-size="14.00">UserFormComponent</text>
</g>
<!-- UserFormComponent&#45;&gt;AppModule -->
<g id="edge5" class="edge">
<title>UserFormComponent&#45;&gt;AppModule</title>
<path fill="none" stroke="black" d="M93,-85.08C93,-106.12 93,-137.8 93,-137.8 93,-137.8 407.02,-137.8 407.02,-137.8"/>
<polygon fill="black" stroke="black" points="407.02,-141.3 417.02,-137.8 407.02,-134.3 407.02,-141.3"/>
</g>
<!-- AppComponent  -->
<g id="node8" class="node">
<title>AppComponent </title>
<polygon fill="#80b1d3" stroke="black" points="513.44,-214.8 404.56,-214.8 404.56,-178.8 513.44,-178.8 513.44,-214.8"/>
<text text-anchor="middle" x="459" y="-192.6" font-family="Times,serif" font-size="14.00">AppComponent </text>
</g>
<!-- AppModule&#45;&gt;AppComponent  -->
<g id="edge7" class="edge">
<title>AppModule&#45;&gt;AppComponent </title>
<path fill="none" stroke="black" stroke-dasharray="1,5" d="M459,-149.91C459,-149.91 459,-168.79 459,-168.79"/>
<polygon fill="black" stroke="black" points="455.5,-168.79 459,-178.79 462.5,-168.79 455.5,-168.79"/>
</g>
<!-- AppRoutingModule -->
<g id="node7" class="node">
<title>AppRoutingModule</title>
<polygon fill="#8dd3c7" stroke="black" points="863.28,-84.8 860.28,-88.8 839.28,-88.8 836.28,-84.8 734.72,-84.8 734.72,-48.8 863.28,-48.8 863.28,-84.8"/>
<text text-anchor="middle" x="799" y="-62.6" font-family="Times,serif" font-size="14.00">AppRoutingModule</text>
</g>
<!-- AppRoutingModule&#45;&gt;AppModule -->
<g id="edge6" class="edge">
<title>AppRoutingModule&#45;&gt;AppModule</title>
<path fill="none" stroke="black" d="M799,-85.08C799,-106.12 799,-137.8 799,-137.8 799,-137.8 510.69,-137.8 510.69,-137.8"/>
<polygon fill="black" stroke="black" points="510.69,-134.3 500.69,-137.8 510.69,-141.3 510.69,-134.3"/>
</g>
</g>
</svg>
