<?xml version="1.0" encoding="UTF-8" standalone="no"?>
<!DOCTYPE svg PUBLIC "-//W3C//DTD SVG 1.1//EN"
 "http://www.w3.org/Graphics/SVG/1.1/DTD/svg11.dtd">
<!-- Generated by graphviz version 5.0.0 (20220707.1540)
 -->
<!-- Title: dependencies Pages: 1 -->
<svg width="895pt" height="247pt"
 viewBox="0.00 0.00 895.00 246.80" xmlns="http://www.w3.org/2000/svg" xmlns:xlink="http://www.w3.org/1999/xlink">
<g id="graph0" class="graph" transform="scale(1 1) rotate(0) translate(4 242.8)">
<title>dependencies</title>
<polygon fill="white" stroke="transparent" points="-4,4 -4,-242.8 891,-242.8 891,4 -4,4"/>
<text text-anchor="middle" x="443.5" y="-8.2" font-family="sans-serif" font-size="14.00">dependencies</text>
<g id="clust1" class="cluster">
<title>cluster_AppModule</title>
<polygon fill="none" stroke="black" stroke-dasharray="1,5" points="8,-32.8 8,-230.8 879,-230.8 879,-32.8 8,-32.8"/>
</g>
<g id="clust2" class="cluster">
<title>cluster_AppModule_declarations</title>
<polygon fill="none" stroke="black" points="168,-40.8 168,-92.8 871,-92.8 871,-40.8 168,-40.8"/>
</g>
<g id="clust8" class="cluster">
<title>cluster_AppModule_imports</title>
<polygon fill="none" stroke="black" points="16,-40.8 16,-92.8 160,-92.8 160,-40.8 16,-40.8"/>
</g>
<g id="clust10" class="cluster">
<title>cluster_AppModule_bootstrap</title>
<polygon fill="none" stroke="black" points="408,-170.8 408,-222.8 532,-222.8 532,-170.8 408,-170.8"/>
</g>
<!-- AppComponent -->
<g id="node1" class="node">
<title>AppComponent</title>
<polygon fill="#ffffb3" stroke="black" points="862.94,-84.8 757.06,-84.8 757.06,-48.8 862.94,-48.8 862.94,-84.8"/>
<text text-anchor="middle" x="810" y="-62.6" font-family="Times,serif" font-size="14.00">AppComponent</text>
</g>
<!-- AppModule -->
<g id="node6" class="node">
<title>AppModule</title>
<polygon fill="#8dd3c7" stroke="black" points="511.66,-149.8 508.66,-153.8 487.66,-153.8 484.66,-149.8 428.34,-149.8 428.34,-113.8 511.66,-113.8 511.66,-149.8"/>
<text text-anchor="middle" x="470" y="-127.6" font-family="Times,serif" font-size="14.00">AppModule</text>
</g>
<!-- AppComponent&#45;&gt;AppModule -->
<g id="edge1" class="edge">
<title>AppComponent&#45;&gt;AppModule</title>
<path fill="none" stroke="black" d="M810,-85.08C810,-106.12 810,-137.8 810,-137.8 810,-137.8 521.69,-137.8 521.69,-137.8"/>
<polygon fill="black" stroke="black" points="521.69,-134.3 511.69,-137.8 521.69,-141.3 521.69,-134.3"/>
</g>
<!-- FooterComponent -->
<g id="node2" class="node">
<title>FooterComponent</title>
<polygon fill="#ffffb3" stroke="black" points="738.88,-84.8 621.12,-84.8 621.12,-48.8 738.88,-48.8 738.88,-84.8"/>
<text text-anchor="middle" x="680" y="-62.6" font-family="Times,serif" font-size="14.00">FooterComponent</text>
</g>
<!-- FooterComponent&#45;&gt;AppModule -->
<g id="edge2" class="edge">
<title>FooterComponent&#45;&gt;AppModule</title>
<path fill="none" stroke="black" d="M680,-84.82C680,-102.17 680,-125.8 680,-125.8 680,-125.8 521.74,-125.8 521.74,-125.8"/>
<polygon fill="black" stroke="black" points="521.74,-122.3 511.74,-125.8 521.74,-129.3 521.74,-122.3"/>
</g>
<!-- HeaderComponent -->
<g id="node3" class="node">
<title>HeaderComponent</title>
<polygon fill="#ffffb3" stroke="black" points="602.75,-84.8 481.25,-84.8 481.25,-48.8 602.75,-48.8 602.75,-84.8"/>
<text text-anchor="middle" x="542" y="-62.6" font-family="Times,serif" font-size="14.00">HeaderComponent</text>
</g>
<!-- HeaderComponent&#45;&gt;AppModule -->
<g id="edge3" class="edge">
<title>HeaderComponent&#45;&gt;AppModule</title>
<path fill="none" stroke="black" d="M496.48,-84.91C496.48,-84.91 496.48,-103.79 496.48,-103.79"/>
<polygon fill="black" stroke="black" points="492.98,-103.79 496.48,-113.79 499.98,-103.79 492.98,-103.79"/>
</g>
<!-- InfoUserComponent -->
<g id="node4" class="node">
<title>InfoUserComponent</title>
<polygon fill="#ffffb3" stroke="black" points="463.59,-84.8 332.41,-84.8 332.41,-48.8 463.59,-48.8 463.59,-84.8"/>
<text text-anchor="middle" x="398" y="-62.6" font-family="Times,serif" font-size="14.00">InfoUserComponent</text>
</g>
<!-- InfoUserComponent&#45;&gt;AppModule -->
<g id="edge4" class="edge">
<title>InfoUserComponent&#45;&gt;AppModule</title>
<path fill="none" stroke="black" d="M445.86,-84.91C445.86,-84.91 445.86,-103.79 445.86,-103.79"/>
<polygon fill="black" stroke="black" points="442.36,-103.79 445.86,-113.79 449.36,-103.79 442.36,-103.79"/>
</g>
<!-- UserFormComponent -->
<g id="node5" class="node">
<title>UserFormComponent</title>
<polygon fill="#ffffb3" stroke="black" points="314.1,-84.8 175.9,-84.8 175.9,-48.8 314.1,-48.8 314.1,-84.8"/>
<text text-anchor="middle" x="245" y="-62.6" font-family="Times,serif" font-size="14.00">UserFormComponent</text>
</g>
<!-- UserFormComponent&#45;&gt;AppModule -->
<g id="edge5" class="edge">
<title>UserFormComponent&#45;&gt;AppModule</title>
<path fill="none" stroke="black" d="M245,-84.82C245,-102.17 245,-125.8 245,-125.8 245,-125.8 418.21,-125.8 418.21,-125.8"/>
<polygon fill="black" stroke="black" points="418.21,-129.3 428.21,-125.8 418.21,-122.3 418.21,-129.3"/>
</g>
<!-- AppComponent  -->
<g id="node8" class="node">
<title>AppComponent </title>
<polygon fill="#80b1d3" stroke="black" points="524.44,-214.8 415.56,-214.8 415.56,-178.8 524.44,-178.8 524.44,-214.8"/>
<text text-anchor="middle" x="470" y="-192.6" font-family="Times,serif" font-size="14.00">AppComponent </text>
</g>
<!-- AppModule&#45;&gt;AppComponent  -->
<g id="edge7" class="edge">
<title>AppModule&#45;&gt;AppComponent </title>
<path fill="none" stroke="black" stroke-dasharray="1,5" d="M470,-149.91C470,-149.91 470,-168.79 470,-168.79"/>
<polygon fill="black" stroke="black" points="466.5,-168.79 470,-178.79 473.5,-168.79 466.5,-168.79"/>
</g>
<!-- AppRoutingModule -->
<g id="node7" class="node">
<title>AppRoutingModule</title>
<polygon fill="#8dd3c7" stroke="black" points="152.28,-84.8 149.28,-88.8 128.28,-88.8 125.28,-84.8 23.72,-84.8 23.72,-48.8 152.28,-48.8 152.28,-84.8"/>
<text text-anchor="middle" x="88" y="-62.6" font-family="Times,serif" font-size="14.00">AppRoutingModule</text>
</g>
<!-- AppRoutingModule&#45;&gt;AppModule -->
<g id="edge6" class="edge">
<title>AppRoutingModule&#45;&gt;AppModule</title>
<path fill="none" stroke="black" d="M88,-85.08C88,-106.12 88,-137.8 88,-137.8 88,-137.8 418.03,-137.8 418.03,-137.8"/>
<polygon fill="black" stroke="black" points="418.03,-141.3 428.03,-137.8 418.03,-134.3 418.03,-141.3"/>
</g>
</g>
</svg>
